<svg xmlns="http://www.w3.org/2000/svg" xmlns:xlink="http://www.w3.org/1999/xlink" width="525" height="56" viewBox="0 0 708 56" font-family="Helvetica, Arial, sans-serif">
<defs><marker id="arrow" viewBox="0 0 10 10" refX="9" refY="5" markerWidth="7" markerHeight="7" orient="auto-start-reverse"><path d="M0,0 L10,5 L0,10 z" fill="#222"/></marker></defs>
<rect x="20" y="6" width="90" height="44" rx="5" fill="#FFFFFF" stroke="#222" stroke-width="1.1"/>
<text x="65" y="25" text-anchor="middle" font-size="10.5" fill="#222">Full-page</text>
<text x="65" y="39" text-anchor="middle" font-size="10.5" fill="#222">lead sheet</text>
<rect x="198" y="6" width="100" height="44" rx="5" fill="#EEF2F7" stroke="#222" stroke-width="1.1"/>
<text x="247" y="25" text-anchor="middle" font-size="10.5" fill="#222">System detect</text>
<text x="247" y="39" text-anchor="middle" font-size="10.5" fill="#222">(YOLO)</text>
<rect x="388" y="6" width="110" height="44" rx="5" fill="#CFE2F3" stroke="#222" stroke-width="1.1"/>
<text x="443" y="25" text-anchor="middle" font-size="10.5" fill="#222">Staff-level</text>
<text x="443" y="39" text-anchor="middle" font-size="10.5" fill="#222">inference (SMT)</text>
<rect x="578" y="6" width="110" height="44" rx="5" fill="#A8C8DD" stroke="#222" stroke-width="1.1"/>
<text x="633" y="25" text-anchor="middle" font-size="10.5" fill="#222">Full-page</text>
<text x="633" y="39" text-anchor="middle" font-size="10.5" fill="#222">Evaluation</text>
<line x1="115" y1="28" x2="194" y2="28" stroke="#222" stroke-width="1.1" marker-end="url(#arrow)"/>
<text x="153" y="13" text-anchor="middle" font-size="9" font-style="italic" fill="#444">pre-processing</text>
<text x="153" y="22" text-anchor="middle" font-size="9" font-style="italic" fill="#444">(rotate, resize)</text>
<line x1="305" y1="28" x2="384" y2="28" stroke="#222" stroke-width="1.1" marker-end="url(#arrow)"/>
<text x="342" y="13" text-anchor="middle" font-size="9" font-style="italic" fill="#444">post-processing</text>
<text x="342" y="22" text-anchor="middle" font-size="9" font-style="italic" fill="#444">(expand box etc.)</text>
<line x1="502" y1="28" x2="574" y2="28" stroke="#222" stroke-width="1.1" marker-end="url(#arrow)"/>
<text x="538" y="13" text-anchor="middle" font-size="9" font-style="italic" fill="#444">concatenate</text>
<text x="538" y="22" text-anchor="middle" font-size="9" font-style="italic" fill="#444">predictions</text>
</svg>
